#Comment line ignore any data following # character 
#Hierarchical Translation and Rotation (.htr) file 
[Header]	
#Header keywords are followed by a single value 
FileType HTR		#Single word string
DataType HTRS		#Translation followed by rotation and scale data
FileVersion 1		#integer
NumSegments 64		#integer
NumFrames 3		#integer
DataFrameRate 30		#integer, data frame rate in this file
EulerRotationOrder ZYX
CalibrationUnits mm
RotationUnits Degrees
GlobalAxisofGravity Y
BoneLengthAxis Y
ScaleFactor 1.00
[SegmentNames&Hierarchy]
#CHILD	PARENT
Pinger_Root GLOBAL
Pelvis Pinger_Root
L_Hip Pelvis
R_Hip Pelvis
Rear_Leg01 Pelvis
Spine1 Pelvis
L_Leg01 L_Hip
L_Leg02 L_Leg01
L_Leg03 L_Leg02
L_Foot L_Leg03
L_Toe1_01 L_Foot
L_Toe2_01 L_Foot
L_Toe3_01 L_Foot
planeAlignerLeft L_Foot
L_Toe1_02 L_Toe1_01
L_Toe1_03 L_Toe1_02
L_Toe2_02 L_Toe2_01
L_Toe2_03 L_Toe2_02
L_Toe3_02 L_Toe3_01
L_Toe3_03 L_Toe3_02
planeLockWeightLeft planeAlignerLeft
R_Leg01 R_Hip
R_Leg02 R_Leg01
R_Leg03 R_Leg02
R_Foot R_Leg03
planeAlignerRight R_Foot
R_Toe1_01 R_Foot
R_Toe2_01 R_Foot
R_Toe3_01 R_Foot
planeLockWeightRight planeAlignerRight
R_Toe1_02 R_Toe1_01
R_Toe1_03 R_Toe1_02
R_Toe2_02 R_Toe2_01
R_Toe2_03 R_Toe2_02
R_Toe3_02 R_Toe3_01
R_Toe3_03 R_Toe3_02
Rear_Leg02 Rear_Leg01
Rear_Leg03 Rear_Leg02
Rear_Leg04 Rear_Leg03
Rear_Foot Rear_Leg04
planeAlignerCenter Rear_Foot
Rear_Toe1_01 Rear_Foot
Rear_Toe2_01 Rear_Foot
Rear_Toe3_01 Rear_Foot
planeLockWeightCenter planeAlignerCenter
Rear_Toe1_02 Rear_Toe1_01
Rear_Toe1_03 Rear_Toe1_02
Rear_Toe2_02 Rear_Toe2_01
Rear_Toe2_03 Rear_Toe2_02
Rear_Toe3_02 Rear_Toe3_01
Rear_Toe3_03 Rear_Toe3_02
Back_Bone Spine1
Head Spine1
Motor_Bone Back_Bone
Ping_Mechanism Back_Bone
BN_LookIK Head
bottomMouth Head
L_Mouth01 Head
L_mouthFront Head
mouthGun Head
R_Mouth01 Head
R_mouthFront Head
TopMouth Head
weapon_bone Head
[BasePosition]
#SegmentName Tx, Ty, Tz, Rx, Ry, Rz, BoneLength
Pinger_Root 0.000000 0.000000 0.000000 -90.000000 0.000000 0.000000 10.000000 
Pelvis 0.000000 0.000000 0.000000 0.000000 0.000000 0.000000 10.000000 
L_Hip 0.000000 0.000000 0.000000 0.000000 0.000000 0.000000 10.000000 
R_Hip 0.000000 0.000000 0.000000 0.000000 0.000000 0.000000 10.000000 
Rear_Leg01 0.000000 0.000000 0.000000 0.000000 0.000000 0.000000 10.000000 
Spine1 0.000000 0.000000 0.000000 0.000000 0.000000 0.000000 10.000000 
L_Leg01 0.000000 0.000000 0.000000 0.000000 0.000000 0.000000 10.000000 
L_Leg02 0.000000 0.000000 0.000000 0.000000 0.000000 0.000000 10.000000 
L_Leg03 0.000000 0.000000 0.000000 0.000000 0.000000 0.000000 10.000000 
L_Foot 0.000000 0.000000 0.000000 0.000000 0.000000 0.000000 10.000000 
L_Toe1_01 0.000000 0.000000 0.000000 0.000000 0.000000 0.000000 10.000000 
L_Toe2_01 0.000000 0.000000 0.000000 0.000000 0.000000 0.000000 10.000000 
L_Toe3_01 0.000000 0.000000 0.000000 0.000000 0.000000 0.000000 10.000000 
planeAlignerLeft 0.000000 0.000000 0.000000 0.000000 0.000000 0.000000 10.000000 
L_Toe1_02 0.000000 0.000000 0.000000 0.000000 0.000000 0.000000 10.000000 
L_Toe1_03 0.000000 0.000000 0.000000 0.000000 0.000000 0.000000 10.000000 
L_Toe2_02 0.000000 0.000000 0.000000 0.000000 0.000000 0.000000 10.000000 
L_Toe2_03 0.000000 0.000000 0.000000 0.000000 0.000000 0.000000 10.000000 
L_Toe3_02 0.000000 0.000000 0.000000 0.000000 0.000000 0.000000 10.000000 
L_Toe3_03 0.000000 0.000000 0.000000 0.000000 0.000000 0.000000 10.000000 
planeLockWeightLeft 0.000000 0.000000 0.000000 0.000000 0.000000 0.000000 10.000000 
R_Leg01 0.000000 0.000000 0.000000 0.000000 0.000000 0.000000 10.000000 
R_Leg02 0.000000 0.000000 0.000000 0.000000 0.000000 0.000000 10.000000 
R_Leg03 0.000000 0.000000 0.000000 0.000000 0.000000 0.000000 10.000000 
R_Foot 0.000000 0.000000 0.000000 0.000000 0.000000 0.000000 10.000000 
planeAlignerRight 0.000000 0.000000 0.000000 0.000000 0.000000 0.000000 10.000000 
R_Toe1_01 0.000000 0.000000 0.000000 0.000000 0.000000 0.000000 10.000000 
R_Toe2_01 0.000000 0.000000 0.000000 0.000000 0.000000 0.000000 10.000000 
R_Toe3_01 0.000000 0.000000 0.000000 0.000000 0.000000 0.000000 10.000000 
planeLockWeightRight 0.000000 0.000000 0.000000 0.000000 0.000000 0.000000 10.000000 
R_Toe1_02 0.000000 0.000000 0.000000 0.000000 0.000000 0.000000 10.000000 
R_Toe1_03 0.000000 0.000000 0.000000 0.000000 0.000000 0.000000 10.000000 
R_Toe2_02 0.000000 0.000000 0.000000 0.000000 0.000000 0.000000 10.000000 
R_Toe2_03 0.000000 0.000000 0.000000 0.000000 0.000000 0.000000 10.000000 
R_Toe3_02 0.000000 0.000000 0.000000 0.000000 0.000000 0.000000 10.000000 
R_Toe3_03 0.000000 0.000000 0.000000 0.000000 0.000000 0.000000 10.000000 
Rear_Leg02 0.000000 0.000000 0.000000 0.000000 0.000000 0.000000 10.000000 
Rear_Leg03 0.000000 0.000000 0.000000 0.000000 0.000000 0.000000 10.000000 
Rear_Leg04 0.000000 0.000000 0.000000 0.000000 0.000000 0.000000 10.000000 
Rear_Foot 0.000000 0.000000 0.000000 0.000000 0.000000 0.000000 10.000000 
planeAlignerCenter 0.000000 0.000000 0.000000 0.000000 0.000000 0.000000 10.000000 
Rear_Toe1_01 0.000000 0.000000 0.000000 0.000000 0.000000 0.000000 10.000000 
Rear_Toe2_01 0.000000 0.000000 0.000000 0.000000 0.000000 0.000000 10.000000 
Rear_Toe3_01 0.000000 0.000000 0.000000 0.000000 0.000000 0.000000 10.000000 
planeLockWeightCenter 0.000000 0.000000 0.000000 0.000000 0.000000 0.000000 10.000000 
Rear_Toe1_02 0.000000 0.000000 0.000000 0.000000 0.000000 0.000000 10.000000 
Rear_Toe1_03 0.000000 0.000000 0.000000 0.000000 0.000000 0.000000 10.000000 
Rear_Toe2_02 0.000000 0.000000 0.000000 0.000000 0.000000 0.000000 10.000000 
Rear_Toe2_03 0.000000 0.000000 0.000000 0.000000 0.000000 0.000000 10.000000 
Rear_Toe3_02 0.000000 0.000000 0.000000 0.000000 0.000000 0.000000 10.000000 
Rear_Toe3_03 0.000000 0.000000 0.000000 0.000000 0.000000 0.000000 10.000000 
Back_Bone 0.000000 0.000000 0.000000 0.000000 0.000000 0.000000 10.000000 
Head 0.000000 0.000000 0.000000 0.000000 0.000000 0.000000 10.000000 
Motor_Bone 0.000000 0.000000 0.000000 0.000000 0.000000 0.000000 10.000000 
Ping_Mechanism 0.000000 0.000000 0.000000 0.000000 0.000000 0.000000 10.000000 
BN_LookIK 0.000000 0.000000 0.000000 0.000000 0.000000 0.000000 10.000000 
bottomMouth 0.000000 0.000000 0.000000 0.000000 0.000000 0.000000 10.000000 
L_Mouth01 0.000000 0.000000 0.000000 0.000000 0.000000 0.000000 10.000000 
L_mouthFront 0.000000 0.000000 0.000000 0.000000 0.000000 0.000000 10.000000 
mouthGun 0.000000 0.000000 0.000000 0.000000 0.000000 0.000000 10.000000 
R_Mouth01 0.000000 0.000000 0.000000 0.000000 0.000000 0.000000 10.000000 
R_mouthFront 0.000000 0.000000 0.000000 0.000000 0.000000 0.000000 10.000000 
TopMouth 0.000000 0.000000 0.000000 0.000000 0.000000 0.000000 10.000000 
weapon_bone 0.000000 0.000000 0.000000 0.000000 0.000000 0.000000 10.000000 
#Beginning of Data. Separated by tabs
#Fr	Tx	Ty	Tz	Rx	Ry	Rz	SF
[Pinger_Root]
52 0.000000 -6611.108887 0.000000 -0.000075 -0.000000 -0.000020 6611.108887
53 0.000000 -6740.737793 0.000000 -0.000075 -0.000000 -0.000020 6740.737793
54 0.000000 -6870.368164 0.000000 -0.000075 -0.000000 -0.000020 6870.368164
[Pelvis]
52 410.395172 347.643036 4902.526367 50.378761 -80.394623 -43.412907 4931.941406
53 347.459412 361.725952 4923.280273 52.698666 -81.233078 -44.875809 4948.763672
54 272.805359 370.974854 4951.472656 45.920902 -83.175972 -37.692669 4972.838867
[L_Hip]
52 5.766392 125.831482 872.656799 -178.250168 -81.786369 87.376007 881.701050
53 5.766392 125.831482 872.656799 -178.250168 -81.786369 87.376007 881.701050
54 5.766392 125.831482 872.656799 -178.250168 -81.786369 87.376007 881.701050
[R_Hip]
52 5.765438 125.836372 -872.654907 -1.748770 81.786041 87.376961 881.699829
53 5.765438 125.836372 -872.654907 -1.748770 81.786041 87.376961 881.699829
54 5.765438 125.836372 -872.654907 -1.748770 81.786041 87.376961 881.699829
[Rear_Leg01]
52 -192.298416 -925.602966 -0.001907 -173.180679 -3.350818 -147.491974 945.367432
53 -192.298416 -925.602966 -0.001907 -172.335709 -5.132079 -137.859589 945.367432
54 -192.298416 -925.602966 -0.001907 -171.319168 -6.270147 -130.891541 945.367432
[Spine1]
52 290.604584 5.007505 0.000477 -8.275825 -3.373614 26.071306 290.647736
53 290.604584 5.007505 0.000477 -8.521559 -2.304753 25.834173 290.647736
54 290.604584 5.007505 0.000477 -8.452249 -1.642761 23.906544 290.647736
[L_Leg01]
52 761.932007 -0.002384 -0.069261 81.012726 11.483633 -79.542366 761.932068
53 761.932007 -0.002384 -0.069261 82.678406 6.578796 -79.168678 761.932068
54 761.932007 -0.002384 -0.069261 82.963524 0.717419 -79.082413 761.932068
[L_Leg02]
52 1441.140503 -0.000954 -0.000715 -1.517087 0.572555 -77.062195 1441.140503
53 1441.140503 -0.000954 -0.000715 -1.521975 0.563656 -82.324295 1441.140503
54 1441.140503 -0.000954 -0.000715 -1.519196 0.568521 -86.619987 1441.140503
[L_Leg03]
52 1686.963989 -0.000715 -0.000954 0.054163 -0.013424 96.169014 1686.963989
53 1686.963989 -0.000715 -0.000954 0.050576 -0.013593 96.971527 1686.963989
54 1686.963989 -0.000715 -0.000954 0.046988 -0.013712 97.774033 1686.963989
[L_Foot]
52 3041.570068 -30.715107 11.297464 -20.544516 14.275161 66.380356 3041.746094
53 3041.570068 -30.715107 11.297464 -19.508753 15.361527 66.731323 3041.746094
54 3041.570068 -30.715107 11.297464 -18.347466 15.964237 67.006721 3041.746094
[L_Toe1_01]
52 -188.216690 -224.732346 -21.137953 89.389275 -1.968797 -163.197708 293.899567
53 -188.216690 -224.732346 -21.137953 89.500725 -2.596826 -164.379913 293.899567
54 -188.216690 -224.732346 -21.137953 89.639893 -3.148678 -165.159546 293.899567
[L_Toe2_01]
52 200.746536 -219.926590 148.838394 -78.043335 -14.332776 -42.847534 332.896027
53 200.746536 -219.926590 148.838394 -77.847862 -14.397766 -43.424782 332.896027
54 200.746536 -219.926590 148.838394 -77.651649 -14.460842 -44.002407 332.896027
[L_Toe3_01]
52 188.832520 -219.859131 -191.078659 -105.610802 17.743088 -44.802052 347.140900
53 188.832520 -219.859131 -191.078659 -105.394188 16.443609 -44.861450 347.140900
54 188.832520 -219.859131 -191.078659 -105.177551 15.144343 -44.925549 347.140900
[planeAlignerLeft]
52 -69.624245 -602.908813 1.101749 0.000000 -90.000000 -90.001900 606.916565
53 -42.020893 -604.530945 13.714310 0.000000 -90.000000 -90.001900 606.144775
54 -20.782875 -605.777710 23.420834 0.000000 -90.000000 -90.001900 606.586426
[L_Toe1_02]
52 413.761139 0.000477 0.000000 0.001398 -24.206816 0.001398 413.761139
53 413.761139 0.000477 0.000000 0.001404 -23.455330 0.001404 413.761139
54 413.761139 0.000477 0.000000 0.001410 -22.703873 0.001410 413.761139
[L_Toe1_03]
52 464.317322 0.000358 -0.000089 0.007637 72.320236 0.007637 464.317322
53 464.317322 0.000358 -0.000089 0.010145 76.713707 0.010145 464.317322
54 464.317322 0.000358 -0.000089 0.013269 79.851097 0.013269 464.317322
[L_Toe2_02]
52 342.235809 -0.000477 0.000238 0.003520 -79.451126 0.003520 342.235809
53 342.235809 -0.000477 0.000238 0.002351 -78.764725 0.002351 342.235809
54 342.235809 -0.000477 0.000238 0.001180 -78.078308 0.001180 342.235809
[L_Toe2_03]
52 420.210846 -0.000715 0.000000 -179.998795 67.895439 -179.995224 420.210846
53 420.210846 -0.000715 0.000000 -179.998047 72.203903 -179.994522 420.210846
54 420.210846 -0.000715 0.000000 -179.997131 75.720627 -179.993607 420.210846
[L_Toe3_02]
52 329.270111 0.000954 0.000000 0.001176 -82.998398 0.001176 329.270111
53 329.270111 0.000954 0.000000 0.001176 -82.625839 0.001176 329.270111
54 329.270111 0.000954 0.000000 0.001176 -82.253265 0.001176 329.270111
[L_Toe3_03]
52 439.137451 -0.001907 0.000954 179.995850 66.526848 -179.998795 439.137451
53 439.137451 -0.001907 0.000954 -179.998581 69.280426 -179.995041 439.137451
54 439.137451 -0.001907 0.000954 -179.998184 71.574715 -179.994644 439.137451
[planeLockWeightLeft]
52 999.999329 0.098267 0.076206 -0.011826 -0.004376 0.005620 999.999329
53 999.999329 0.098267 0.076210 -0.011826 -0.004376 0.005620 999.999329
54 999.999329 0.098267 0.076214 -0.011826 -0.004376 0.005620 999.999329
[R_Leg01]
52 761.455627 -0.001907 -0.000358 118.396797 -40.729984 56.022392 761.455688
53 761.455627 -0.001907 -0.000358 116.270012 -39.535843 57.978855 761.455688
54 761.455627 -0.001907 -0.000358 114.911407 -38.832890 59.138191 761.455688
[R_Leg02]
52 1441.140625 0.000000 -0.000238 -0.047644 -0.022725 -128.288177 1441.140625
53 1441.140625 0.000000 -0.000238 0.032293 -0.058449 -123.663719 1441.140625
54 1441.140625 0.000000 -0.000238 0.097402 -0.057428 -118.129189 1441.140625
[R_Leg03]
52 1686.963989 0.000954 0.001431 -0.038815 0.010580 100.457977 1686.963989
53 1686.963989 0.000954 0.001431 -0.038869 0.010381 99.871162 1686.963989
54 1686.963989 0.000954 0.001431 -0.038853 0.010441 100.048622 1686.963989
[R_Foot]
52 3041.560059 -30.531288 -11.204481 6.093726 -17.163887 59.443504 3041.734131
53 3041.560059 -30.531288 -11.204481 7.489699 -19.102020 56.841480 3041.734131
54 3041.560059 -30.531288 -11.204481 8.947359 -20.486589 53.432110 3041.734131
[planeAlignerRight]
52 -0.838623 -699.279297 -0.321655 0.000000 -89.960434 -90.005180 699.279907
53 -0.829773 -687.414307 -0.317078 0.000000 -89.960434 -90.005180 687.414856
54 -0.822144 -682.992004 -0.315552 0.000000 -89.960434 -90.005180 682.992554
[R_Toe1_01]
52 -188.383347 -224.864899 21.052242 90.735901 1.964758 -158.688614 294.101532
53 -188.383347 -224.864899 21.052242 90.718010 1.974654 -159.645493 294.101532
54 -188.383347 -224.864899 21.052242 90.704277 1.981747 -159.997406 294.101532
[R_Toe2_01]
52 200.637817 -220.002121 -148.787384 -103.366798 11.182731 -50.907242 332.857574
53 200.637817 -220.002121 -148.787384 -103.196129 11.385836 -50.034916 332.857574
54 200.637817 -220.002121 -148.787384 -103.138489 11.462720 -49.700851 332.857574
[R_Toe3_01]
52 188.606735 -220.092957 191.126343 -72.575363 -13.780985 -52.792099 347.192566
53 188.606735 -220.092957 191.126343 -72.796127 -14.052397 -51.912853 347.192566
54 188.606735 -220.092957 191.126343 -72.877075 -14.152256 -51.588196 347.192566
[planeLockWeightRight]
52 999.999939 -0.000642 0.075999 -0.011823 -0.004379 -0.000027 999.999939
53 999.999939 -0.000631 0.075996 -0.011823 -0.004379 -0.000027 999.999939
54 1000.000000 -0.000621 0.075992 -0.011823 -0.004379 -0.000027 1000.000000
[R_Toe1_02]
52 413.762085 0.000477 -0.000119 0.001402 -23.668430 0.001402 413.762085
53 413.762085 0.000477 -0.000119 0.001404 -23.360016 0.001404 413.762085
54 413.762085 0.000477 -0.000119 0.001404 -23.375162 0.001404 413.762085
[R_Toe1_03]
52 464.317810 0.000000 0.001088 0.009455 75.739426 0.009455 464.317810
53 464.317810 0.000000 0.001088 0.010193 76.776863 0.010193 464.317810
54 464.317810 0.000000 0.001088 0.010493 77.155922 0.010493 464.317810
[R_Toe2_02]
52 342.234741 -0.000954 0.000238 -0.002343 -75.078911 -0.002343 342.234741
53 342.234741 -0.000954 0.000238 -0.002342 -75.341370 -0.002342 342.234741
54 342.234741 -0.000954 0.000238 -0.002342 -75.603760 -0.002342 342.234741
[R_Toe2_03]
52 420.210846 0.000715 -0.000268 -179.978729 86.626633 -179.982224 420.210846
53 420.210846 0.000715 -0.000268 -179.984009 85.375511 -179.987503 420.210846
54 420.210846 0.000715 -0.000268 -179.985306 84.912231 -179.988800 420.210846
[R_Toe3_02]
52 329.270355 -0.000477 -0.000954 0.001179 -78.925255 0.001179 329.270355
53 329.270355 -0.000477 -0.000954 0.001179 -79.357582 0.001179 329.270355
54 329.270355 -0.000477 -0.000954 0.001179 -79.344765 0.001179 329.270355
[R_Toe3_03]
52 439.137939 0.000238 0.001431 -179.990982 83.884071 -179.987488 439.137939
53 439.137939 0.000238 0.001431 -179.992706 82.719093 -179.989197 439.137939
54 439.137939 0.000238 0.001431 -179.993210 82.291542 -179.989700 439.137939
[Rear_Leg02]
52 1162.777710 -0.029802 0.005960 28.124603 12.552398 -157.932617 1162.777710
53 1162.777710 -0.029802 0.005960 28.658463 12.520315 -153.559631 1162.777710
54 1162.777710 -0.029802 0.005960 30.254959 8.336398 -144.176636 1162.777710
[Rear_Leg03]
52 607.192505 -0.013351 -0.073195 0.003128 -0.006681 76.928467 607.192505
53 607.192505 -0.013351 -0.073195 0.003116 -0.006686 77.137016 607.192505
54 607.192505 -0.013351 -0.073195 0.002947 -0.006763 80.018951 607.192505
[Rear_Leg04]
52 995.874512 -0.020504 -0.011921 -0.038344 -0.005873 138.084900 995.874573
53 995.874512 -0.020504 -0.011921 -0.038322 -0.006015 137.661026 995.874573
54 995.874512 -0.020504 -0.011921 -0.037818 -0.008634 129.780304 995.874573
[Rear_Foot]
52 3096.176270 -0.067472 -0.041425 -90.704857 59.799919 90.282692 3096.176270
53 3096.176270 -0.067472 -0.041425 -94.154968 59.725372 90.815804 3096.176270
54 3096.176270 -0.067472 -0.041425 -97.384468 60.228310 89.740173 3096.176270
[planeAlignerCenter]
52 16.329515 119.797409 -765.458496 0.000009 0.000003 -179.999985 774.948303
53 15.430318 149.409119 -764.199768 0.000009 0.000003 -179.999985 778.821228
54 14.607178 172.646637 -763.161316 0.000009 0.000003 -179.999985 782.582520
[Rear_Toe1_01]
52 0.653352 83.966492 -371.173737 0.093826 48.440571 90.040672 380.553192
53 0.653352 83.966492 -371.173737 0.096530 42.405853 90.039268 380.553192
54 0.653352 83.966492 -371.173737 0.096183 39.694683 90.043228 380.553192
[Rear_Toe2_01]
52 178.200760 -294.826019 -362.060547 6.203914 63.773205 -64.013367 499.765686
53 178.200760 -294.826019 -362.060547 19.288322 78.001625 -51.233490 499.765686
54 178.200760 -294.826019 -362.060547 56.693325 84.544502 -13.999322 499.765686
[Rear_Toe3_01]
52 -153.359680 -308.780914 -362.060852 -7.172000 63.686604 -119.223862 499.952881
53 -153.359680 -308.780914 -362.060852 -21.673689 77.706764 -133.370499 499.952881
54 -153.359680 -308.780914 -362.060852 -58.960762 83.931946 -170.458496 499.952881
[planeLockWeightCenter]
52 0.000010 0.000153 0.076447 -0.011814 -0.004373 -0.000015 0.076447
53 0.000000 0.000305 0.076396 -0.011814 -0.004373 -0.000015 0.076396
54 -0.000010 0.000458 0.076345 -0.011814 -0.004373 -0.000015 0.076346
[Rear_Toe1_02]
52 379.707825 0.194073 0.000477 -0.000767 -33.624729 0.000838 379.707855
53 379.707825 0.194073 0.000477 -0.000767 -33.624729 0.000838 379.707855
54 379.707825 0.194073 0.000477 -0.000767 -33.624729 0.000838 379.707855
[Rear_Toe1_03]
52 500.129700 0.165701 0.000119 0.015654 81.401115 0.015654 500.129761
53 500.129700 0.165701 0.000119 -179.968018 87.822189 -179.971512 500.129761
54 500.129700 0.165701 0.000119 -179.986481 84.403709 -179.989975 500.129761
[Rear_Toe2_02]
52 340.494507 0.000238 -0.000954 179.998825 -87.872284 179.998825 340.494507
53 340.494507 0.000238 -0.000954 179.998825 -87.146385 179.998825 340.494507
54 340.494507 0.000238 -0.000954 179.998825 -87.245583 179.998825 340.494507
[Rear_Toe2_03]
52 433.103577 0.000000 0.000238 -179.996094 57.888840 -179.999741 433.103546
53 433.103577 0.000000 0.000238 -179.996277 54.429958 -179.999954 433.103546
54 433.103577 0.000000 0.000238 -179.996216 55.645554 -179.999878 433.103546
[Rear_Toe3_02]
52 340.494141 -0.000358 -0.000477 -179.997681 -87.934265 -179.997681 340.494171
53 340.494141 -0.000358 -0.000477 -179.994171 -87.194389 -179.994171 340.494171
54 340.494141 -0.000358 -0.000477 -179.958038 -87.293541 179.967926 340.494171
[Rear_Toe3_03]
52 433.103577 0.001431 -0.000238 -179.999725 58.205582 -179.996094 433.103546
53 433.103577 0.001431 -0.000238 179.992462 54.697048 179.999802 433.103546
54 433.103577 0.001431 -0.000238 179.992340 55.891773 179.999649 433.103546
[Back_Bone]
52 1312.175781 -701.934692 0.000954 -2.394412 2.513105 -83.853050 1488.125488
53 1312.175781 -701.934692 0.000954 -2.649597 2.005941 -83.663635 1488.125488
54 1312.175781 -701.934692 0.000954 -2.764033 1.717784 -83.953346 1488.125488
[Head]
52 1406.159424 809.709290 0.001431 -1.888447 1.418684 23.488508 1622.625488
53 1406.159424 809.709290 0.001431 -2.277469 1.518555 23.153101 1622.625488
54 1406.159424 809.709290 0.001431 -2.410552 1.552845 23.022526 1622.625488
[Motor_Bone]
52 1158.364380 -417.834747 0.000477 -0.003510 -1.410939 -107.395241 1231.419434
53 1158.364380 -417.834747 0.000477 5.387031 -2.893384 -108.880913 1231.419434
54 1158.364380 -417.834747 0.000477 1.328373 -1.434140 -107.312431 1231.419434
[Ping_Mechanism]
52 1184.584717 -417.509735 33.958160 0.000103 -0.000053 82.120995 1256.466675
53 1186.600952 -418.708435 30.034708 0.000103 -0.000053 82.120995 1258.666260
54 1195.140259 -423.561279 27.032461 0.000103 -0.000053 82.120995 1268.264648
[BN_LookIK]
52 193.241119 1380.371704 -0.002861 0.000000 89.965736 -31.038179 1393.832153
53 193.241119 1380.371704 -0.002861 0.000000 89.965736 -31.038179 1393.832153
54 193.241119 1380.371704 -0.002861 0.000000 89.965736 -31.038179 1393.832153
[bottomMouth]
52 -435.092926 615.759399 -0.000954 -0.000022 0.000016 73.527184 753.966492
53 -435.092926 615.759399 -0.000954 -0.000022 0.000016 73.527184 753.966492
54 -435.092926 615.759399 -0.000954 -0.000022 0.000016 73.527184 753.966492
[L_Mouth01]
52 554.440979 7.658243 838.222046 150.204178 23.759130 109.605339 1005.027161
53 554.440979 7.658243 838.222046 150.204178 23.759130 109.605339 1005.027161
54 554.440979 7.658243 838.222046 150.204178 23.759130 109.605339 1005.027161
[L_mouthFront]
52 551.629089 934.514771 339.150421 0.000081 2.804060 79.119301 1136.941284
53 551.629089 934.514771 339.150421 0.000081 2.804060 79.119301 1136.941284
54 551.629089 934.514771 339.150421 0.000081 2.804060 79.119301 1136.941284
[mouthGun]
52 55.332661 1627.420898 0.000000 0.000023 0.000009 -11.038128 1628.361328
53 55.332661 1627.420898 0.000000 0.000023 0.000009 -11.038128 1628.361328
54 55.332661 1627.420898 0.000000 0.000023 0.000009 -11.038128 1628.361328
[R_Mouth01]
52 554.442383 7.659197 -838.223938 29.795891 -23.759109 109.605331 1005.029541
53 554.442383 7.659197 -838.223938 29.795891 -23.759109 109.605331 1005.029541
54 554.442383 7.659197 -838.223938 29.795891 -23.759109 109.605331 1005.029541
[R_mouthFront]
52 551.629089 934.514282 -339.151367 0.000029 -2.803930 79.119133 1136.941162
53 551.629089 934.514282 -339.151367 0.000029 -2.803930 79.119133 1136.941162
54 551.629089 934.514282 -339.151367 0.000029 -2.803930 79.119133 1136.941162
[TopMouth]
52 461.269867 -56.106091 -0.008583 -0.000059 -0.000268 92.025169 464.669525
53 461.269867 -56.106091 -0.008583 -0.000059 -0.000268 92.025169 464.669525
54 461.269867 -56.106091 -0.008583 -0.000059 -0.000268 92.025169 464.669525
[weapon_bone]
52 -987.239868 1448.372803 0.001431 0.000000 89.965736 -31.038221 1752.833740
53 -987.239868 1448.372803 0.001431 0.000000 89.965736 -31.038221 1752.833740
54 -987.239868 1448.372803 0.001431 0.000000 89.965736 -31.038221 1752.833740
